<svg xmlns="http://www.w3.org/2000/svg" width="24.681" height="26.865" viewBox="0 0 24.681 26.865"><g transform="translate(-17.41 -346.039)"><path d="M39.814,358.867a.387.387,0,0,0-.227-.353L28.4,353.406l-.017-2.3a.388.388,0,0,0-.19-.331l-7.474-4.424a.388.388,0,0,0-.586.334v25.195H17.66v.776H41.841v-.776H39.814ZM33.636,371.84H31.711v-4.321h1.925ZM20.907,347.364l6.7,3.966.017,2.329a.387.387,0,0,0,.227.35l11.188,5.107V371.84H34.412v-4.709a.388.388,0,0,0-.388-.388h-2.7a.388.388,0,0,0-.388.388v4.709H20.907Z" transform="translate(0 0)" fill="#fff" stroke="#fff" stroke-width="0.5"/><path d="M35.157,368.969h2.7a.388.388,0,0,0,.388-.388v-2.7a.388.388,0,0,0-.388-.388h-2.7a.388.388,0,0,0-.388.388v2.7A.388.388,0,0,0,35.157,368.969Zm.388-2.7H37.47v1.925H35.545Z" transform="translate(-3.834 -4.301)" fill="#fff" stroke="#fff" stroke-width="0.5"/></g></svg>