<svg id="Group_18" data-name="Group 18" xmlns="http://www.w3.org/2000/svg" width="20.208" height="16.423" viewBox="0 0 20.208 16.423">
  <path id="Path_10" data-name="Path 10" d="M1239.6,69.054a8.272,8.272,0,0,1-2.381.652,4.16,4.16,0,0,0,1.823-2.293,8.3,8.3,0,0,1-2.632,1.006,4.149,4.149,0,0,0-7.065,3.782,11.768,11.768,0,0,1-8.545-4.332,4.148,4.148,0,0,0,1.283,5.536,4.129,4.129,0,0,1-1.878-.519c0,.017,0,.035,0,.053A4.148,4.148,0,0,0,1223.53,77a4.152,4.152,0,0,1-1.872.072,4.15,4.15,0,0,0,3.873,2.879,8.367,8.367,0,0,1-6.138,1.717,11.79,11.79,0,0,0,18.151-9.933q0-.27-.012-.536a8.424,8.424,0,0,0,2.069-2.146Zm0,0" transform="translate(-1219.393 -67.11)" fill="#707070"/>
</svg>
