<svg xmlns="http://www.w3.org/2000/svg" width="17.86" height="9.525" viewBox="0 0 17.86 9.525">
  <g id="Group_3387" data-name="Group 3387" transform="translate(-907 -297)">
    <path id="Path_1453" data-name="Path 1453" d="M31.587,35.24c-.149-.174-3.894-4.44-8.657-4.44-4.738,0-8.483,4.266-8.657,4.44L14,35.563l.273.322c.149.174,3.894,4.44,8.657,4.44,4.738,0,8.483-4.266,8.657-4.44l.273-.322ZM22.93,39.333c-3.6,0-6.673-2.8-7.615-3.77.943-.967,4.043-3.77,7.615-3.77s6.673,2.8,7.615,3.77C29.6,36.53,26.527,39.333,22.93,39.333Z" transform="translate(893 266.2)" fill="#707070"/>
    <path id="Path_1454" data-name="Path 1454" d="M40.149,36.9A3.249,3.249,0,1,0,43.4,40.149,3.245,3.245,0,0,0,40.149,36.9Zm0,5.507a2.257,2.257,0,1,1,2.257-2.257A2.265,2.265,0,0,1,40.149,42.407Z" transform="translate(875.78 261.613)" fill="#707070"/>
    <path id="Path_1455" data-name="Path 1455" d="M45.939,44.6A1.35,1.35,0,0,0,44.6,45.939a1.339,1.339,0,1,0,2.679,0A1.35,1.35,0,0,0,45.939,44.6Zm0,1.712a.372.372,0,1,1,.372-.372A.381.381,0,0,1,45.939,46.312Z" transform="translate(869.99 255.823)" fill="#707070"/>
  </g>
</svg>
