<svg xmlns="http://www.w3.org/2000/svg" width="51.626" height="63" viewBox="0 0 51.626 63"><g transform="translate(-9.437 -0.5)"><g transform="translate(9.437 0.5)"><path d="M39.773,56.279l3.551,1.539,3.424-1.231V53.439H39.755Z" transform="translate(-20.462 -19.751)" fill="#fe0000"/><path d="M55.829,26.395a10.606,10.606,0,0,1-1.47-4.862A22.485,22.485,0,1,0,14.809,37.568,22.834,22.834,0,0,1,20.4,52.745L20.511,63.5l22.268-.006-.1-8.028c-.022-1.669,1.508-2.952,4.96-4.157l3.4-1.187a6.171,6.171,0,0,0,4.414-5.82V38.566l5.611-3.1Zm-15.368-.317c-1.137,1.543-2.12,2.875-2.22,4.721a4.58,4.58,0,0,1-.607,2.229l0,5.651-5.4,1.942-5.387-2.335-.034-5.368a4.513,4.513,0,0,1-.514-2.333c.01-1.552-.948-2.841-2.055-4.332-1.443-1.942-3.237-4.359-3.237-8.1a11.28,11.28,0,1,1,22.559,0C43.566,21.866,41.918,24.1,40.461,26.078Z" transform="translate(-9.437 -0.5)" fill="#fe0000"/><path d="M39.99,13.507a9.381,9.381,0,0,0-9.37,9.371c0,3.114,1.455,5.072,2.861,6.966,1.257,1.692,2.444,3.291,2.432,5.481a2.313,2.313,0,0,0,.337,1.474.475.475,0,0,0,.384.125h1.212L34.53,22.8l3.284-1.481,2.176.981,2.175-.981,3.307,1.492-3.781,14.11h1.562c.329,0,.7,0,.783-1.5.133-2.416,1.382-4.11,2.59-5.749,1.406-1.907,2.733-3.707,2.733-6.8A9.381,9.381,0,0,0,39.99,13.507Z" transform="translate(-17.14 -5.23)" fill="#fe0000"/><path d="M45.667,29.079l-2.175.981-2.176-.981-1.067.481,3.016,12.848,3.445-12.858Z" transform="translate(-20.642 -10.892)" fill="#fe0000"/></g></g></svg>