<svg xmlns="http://www.w3.org/2000/svg" width="33.803" height="26.407" viewBox="0 0 33.803 26.407">
  <path id="Path_1454" data-name="Path 1454" d="M67.233,289.651a.624.624,0,0,0-.409-.507l-1.728-.625a7.954,7.954,0,0,0-.5-1.207l.78-1.661a.626.626,0,0,0-.07-.647,9.881,9.881,0,0,0-1.862-1.863.629.629,0,0,0-.647-.069l-1.661.779a7.875,7.875,0,0,0-1.207-.5l-.625-1.729a.627.627,0,0,0-.506-.408,8.713,8.713,0,0,0-2.636,0,.627.627,0,0,0-.506.408l-.625,1.729a7.824,7.824,0,0,0-1.207.5l-1.661-.779a.632.632,0,0,0-.646.069A9.893,9.893,0,0,0,49.656,285a.628.628,0,0,0-.069.647l.652,1.39-1.983-1.349L35.987,294.3v11.966H33.528v1.255H63.482v-1.255H60.534v-7.936c.2-.083.411-.151.6-.248l1.661.779a.628.628,0,0,0,.647-.069,9.851,9.851,0,0,0,1.862-1.864.624.624,0,0,0,.07-.646l-.78-1.661a7.968,7.968,0,0,0,.5-1.208l1.728-.624a.626.626,0,0,0,.409-.507,8.907,8.907,0,0,0,0-2.633ZM49.817,306.209H46.7v-6.024h3.113Zm1.255,0v-6.652a.628.628,0,0,0-.627-.627H46.078a.627.627,0,0,0-.627.627v6.652H37.242V294.954l11.025-7.736,1.67,1.134c-.02.058-.051.109-.069.167l-1.728.625a.626.626,0,0,0-.409.506,8.924,8.924,0,0,0,0,2.636.63.63,0,0,0,.409.506l1.728.624a8.041,8.041,0,0,0,.5,1.208l-.779,1.661a.627.627,0,0,0,.069.646,9.938,9.938,0,0,0,1.864,1.864.626.626,0,0,0,.646.069l1.661-.779a7.972,7.972,0,0,0,1.207.5l.625,1.728a.628.628,0,0,0,.506.409,9.037,9.037,0,0,0,2.636,0,.621.621,0,0,0,.479-.373v5.863Zm14.962-14.466-1.661.6a.631.631,0,0,0-.391.423,6.626,6.626,0,0,1-.631,1.528.629.629,0,0,0-.023.577l.748,1.593a8.649,8.649,0,0,1-1.1,1.1l-1.593-.749a.629.629,0,0,0-.577.023,6.681,6.681,0,0,1-1.527.631.626.626,0,0,0-.423.391l-.6,1.661a7.83,7.83,0,0,1-1.552,0l-.6-1.661a.629.629,0,0,0-.423-.391,6.691,6.691,0,0,1-1.528-.631.627.627,0,0,0-.576-.023l-1.593.749a8.742,8.742,0,0,1-1.1-1.1l.748-1.593a.626.626,0,0,0-.023-.577,6.744,6.744,0,0,1-.63-1.528.631.631,0,0,0-.391-.423l-1.661-.6a7.068,7.068,0,0,1,0-1.551l1.661-.6a.629.629,0,0,0,.391-.423,6.768,6.768,0,0,1,.63-1.528.623.623,0,0,0,.023-.576l-.748-1.595a8.651,8.651,0,0,1,1.1-1.1l1.593.748a.627.627,0,0,0,.576-.023,6.752,6.752,0,0,1,1.528-.63.631.631,0,0,0,.423-.391l.6-1.662a7.821,7.821,0,0,1,1.552,0l.6,1.662a.626.626,0,0,0,.423.391,6.72,6.72,0,0,1,1.528.63.627.627,0,0,0,.576.023l1.593-.748a8.56,8.56,0,0,1,1.1,1.1l-.748,1.595a.627.627,0,0,0,.023.576,6.649,6.649,0,0,1,.631,1.528.629.629,0,0,0,.391.423l1.661.6a7.068,7.068,0,0,1,0,1.551Z" transform="translate(-33.528 -281.116)" fill="#fff"/>
</svg>
