<svg xmlns="http://www.w3.org/2000/svg" width="15.48" height="12.58" viewBox="0 0 15.48 12.58"><defs><style>.a{fill:#707070;}</style></defs><path class="a" d="M1234.873,68.6a6.335,6.335,0,0,1-1.824.5,3.186,3.186,0,0,0,1.4-1.757,6.36,6.36,0,0,1-2.017.77,3.178,3.178,0,0,0-5.412,2.9,9.015,9.015,0,0,1-6.546-3.319,3.178,3.178,0,0,0,.983,4.24,3.162,3.162,0,0,1-1.438-.4c0,.013,0,.027,0,.04a3.177,3.177,0,0,0,2.548,3.114,3.181,3.181,0,0,1-1.434.055,3.179,3.179,0,0,0,2.967,2.205,6.41,6.41,0,0,1-4.7,1.315,9.032,9.032,0,0,0,13.9-7.609q0-.207-.01-.411a6.453,6.453,0,0,0,1.585-1.644Zm0,0" transform="translate(-1219.393 -67.11)"/></svg>