<svg id="noun_like_428414" xmlns="http://www.w3.org/2000/svg" width="14.118" height="13.237" viewBox="0 0 14.118 13.237">
  <g id="Group_2693" data-name="Group 2693">
    <g id="Group_2692" data-name="Group 2692">
      <g id="Group_2691" data-name="Group 2691">
        <path id="Path_1538" data-name="Path 1538" d="M19.147,6.729c0-.938-.734-1.434-1.763-1.434H14.426a9.047,9.047,0,0,0,.31-2.206C14.736.536,14.017,0,13.412,0a1.9,1.9,0,0,0-1.107.282.441.441,0,0,0-.21.3l-.435,2.39A7.913,7.913,0,0,1,9,6.07v6.293a2.845,2.845,0,0,1,1.128.391,3.493,3.493,0,0,0,1.52.483h4.192a1.5,1.5,0,0,0,1.54-1.324,1.608,1.608,0,0,0-.034-.33,1.318,1.318,0,0,0,.918-1.215,1.575,1.575,0,0,0-.142-.691A1.418,1.418,0,0,0,18.794,8.6a1.248,1.248,0,0,0-.282-.744,1.48,1.48,0,0,0,.635-1.132Zm-.925,0c0,.559-.593.625-.666.9-.081.3.357.418.357.943,0,.552-.666.545-.757.83-.108.338.219.43.219.972a.3.3,0,0,1-.015.1c-.091.454-.766.466-.882.653s.018.324.018.793c0,.257-.289.441-.657.441H11.647a2.846,2.846,0,0,1-1.128-.391,4.911,4.911,0,0,0-1.078-.432V6.846A8.833,8.833,0,0,0,12.5,3.238a.49.49,0,0,0,.019-.071l.4-2.215a1.148,1.148,0,0,1,.487-.07c.1,0,.441.528.441,2.206a8.486,8.486,0,0,1-.34,2.206H13.4a.441.441,0,1,0,0,.882h3.98c.434,0,.838.207.838.552Z" transform="translate(-5.029)" fill="#707070" fill-rule="evenodd"/>
        <path id="Path_1539" data-name="Path 1539" d="M3.53,19.942H.882A.883.883,0,0,1,0,19.06V12.882A.883.883,0,0,1,.882,12H3.53a.883.883,0,0,1,.882.882V19.06a.883.883,0,0,1-.882.882ZM.882,12.882V19.06H3.529V12.882Z" transform="translate(0 -6.705)" fill="#707070" fill-rule="evenodd"/>
        <path id="Path_1540" data-name="Path 1540" fill="#707070" fill-rule="evenodd"/>
      </g>
    </g>
  </g>
</svg>
