<svg id="Group_9" data-name="Group 9" xmlns="http://www.w3.org/2000/svg" width="14.819" height="19.049" viewBox="0 0 14.819 19.049">
  <path id="Path_6" data-name="Path 6" d="M1497.09,86.158a5.188,5.188,0,0,1-2.557-1.217c-.5,2.622-1.111,5.136-2.92,6.45-.559-3.964.82-6.94,1.46-10.1-1.092-1.837.131-5.536,2.434-4.625,2.833,1.121-2.454,6.832,1.1,7.546,3.705.745,5.218-6.429,2.92-8.762-3.319-3.369-9.663-.077-8.883,4.746.19,1.179,1.408,1.537.486,3.164-2.125-.471-2.759-2.146-2.677-4.381a7.15,7.15,0,0,1,6.45-6.572c4-.448,7.757,1.469,8.275,5.233.583,4.248-1.806,8.849-6.084,8.519Zm0,0" transform="translate(-1488.442 -72.341)" fill="#fff"/>
</svg>
