<svg xmlns="http://www.w3.org/2000/svg" width="59.441" height="55.6" viewBox="0 0 59.441 55.6"><g transform="translate(-7.658 -3.38)"><g transform="translate(7.658 3.38)"><g transform="translate(0 22.761)"><path d="M23.781,48.189v-8.8a10.594,10.594,0,0,0-1.787-5.914h0a10.852,10.852,0,0,0-5.153-4.107.7.7,0,0,1-.456-.589.753.753,0,0,1,.323-.685,6.841,6.841,0,0,0,3.271-5.838,6.9,6.9,0,1,0-13.8,0A6.841,6.841,0,0,0,9.444,28.09a.7.7,0,0,1,.323.685.71.71,0,0,1-.456.589,10.741,10.741,0,0,0-5.153,4.107h0A10.7,10.7,0,0,0,2.37,39.385v8.8H23.781Z" transform="translate(-2.37 -15.35)" fill="#fe0000"/><path d="M29.013,22.262a6.9,6.9,0,1,0-13.8,0A6.841,6.841,0,0,0,18.479,28.1a.7.7,0,0,1,.323.685.71.71,0,0,1-.456.589,10.9,10.9,0,0,0-4.906,3.765,12.036,12.036,0,0,1,1.768,6.237v8.8H32.816v-8.8a10.594,10.594,0,0,0-1.787-5.914h0a10.852,10.852,0,0,0-5.153-4.107.7.7,0,0,1-.456-.589.753.753,0,0,1,.323-.685A6.828,6.828,0,0,0,29.013,22.262Z" transform="translate(7.61 -15.341)" fill="#fe0000"/><path d="M41.029,33.471a10.852,10.852,0,0,0-5.153-4.107.7.7,0,0,1-.456-.589.753.753,0,0,1,.323-.685,6.841,6.841,0,0,0,3.271-5.838,6.9,6.9,0,1,0-13.8,0,6.841,6.841,0,0,0,3.271,5.838.719.719,0,0,1-.133,1.274,10.9,10.9,0,0,0-4.906,3.765,12.036,12.036,0,0,1,1.768,6.237v8.8H42.816v-8.8a10.732,10.732,0,0,0-1.787-5.895Z" transform="translate(16.625 -15.35)" fill="#fe0000"/></g><g transform="translate(7.929)"><path d="M48.392,3.38H8.27A1.737,1.737,0,0,0,6.54,5.11V23.916a1.737,1.737,0,0,0,1.73,1.73H48.392a1.737,1.737,0,0,0,1.73-1.73V5.11A1.749,1.749,0,0,0,48.392,3.38ZM17.112,18.25,14.85,17.071,12.606,18.25l.437-2.51-1.825-1.787,2.529-.361,1.122-2.282,1.122,2.282,2.529.361-1.825,1.768Zm13.158,0-2.263-1.179L25.745,18.25l.437-2.51-1.825-1.768,2.529-.361,1.122-2.282L29.13,13.61l2.529.361L29.833,15.74Zm13.177,0-2.263-1.179L38.923,18.25l.437-2.51-1.825-1.768,2.529-.361,1.122-2.282,1.122,2.282,2.529.361L43.011,15.74Z" transform="translate(-6.54 -3.38)" fill="#fe0000"/></g></g></g></svg>