<svg xmlns="http://www.w3.org/2000/svg" width="30.437" height="33.176" viewBox="0 0 30.437 33.176">
  <g id="Group_2685" data-name="Group 2685" transform="translate(-17.66 -346.296)">
    <path id="Path_833" data-name="Path 833" d="M45.545,362.118a.487.487,0,0,0-.286-.444l-14.083-6.429-.021-2.9a.488.488,0,0,0-.239-.417l-9.407-5.569a.488.488,0,0,0-.737.42V378.5H17.66v.977H48.1V378.5H45.545Zm-7.776,16.329H35.346v-5.439h2.423ZM21.747,347.64l8.432,4.993.021,2.931a.488.488,0,0,0,.285.44l14.082,6.428v16.016H38.746v-5.927a.489.489,0,0,0-.488-.488h-3.4a.489.489,0,0,0-.488.488v5.927H21.747Z" transform="translate(0 0)" fill="#fff"/>
    <path id="Path_834" data-name="Path 834" d="M35.257,369.868h3.4a.489.489,0,0,0,.488-.488v-3.4a.488.488,0,0,0-.488-.488h-3.4a.488.488,0,0,0-.488.488v3.4A.489.489,0,0,0,35.257,369.868Zm.488-3.4h2.423v2.423H35.746Z" transform="translate(-0.4 -0.448)" fill="#fff"/>
  </g>
</svg>
