<svg xmlns="http://www.w3.org/2000/svg" width="56.002" height="55.99" viewBox="0 0 56.002 55.99"><g transform="translate(-227.999 -227.955)"><g transform="translate(192.299 192.255)"><g transform="translate(47 47)"><g transform="translate(0)"><path d="M141.3,124.6A16.7,16.7,0,1,0,158,141.3,16.721,16.721,0,0,0,141.3,124.6Zm8.376,12.7L139.6,146.805a.979.979,0,0,1-.7.28.99.99,0,0,1-.724-.305l-5.275-5.415a1.016,1.016,0,1,1,1.449-1.424l4.576,4.7,9.355-8.821a1.016,1.016,0,1,1,1.4,1.474Z" transform="translate(-124.6 -124.6)" fill="#fe0000"/></g></g><g transform="translate(35.7 35.7)"><g transform="translate(0 0)"><path d="M87.686,69.789,91.7,63.7l-4.017-6.088a1.029,1.029,0,0,1-.165-.61l.407-7.3-6.5-3.292a1,1,0,0,1-.445-.445l-3.279-6.5-7.3.407a1.029,1.029,0,0,1-.61-.165L63.7,35.7l-6.088,4.017a1.029,1.029,0,0,1-.61.165l-7.3-.407-3.292,6.5a1,1,0,0,1-.445.445l-6.5,3.279.407,7.3a1.029,1.029,0,0,1-.165.61L35.7,63.7l4.017,6.088a1.029,1.029,0,0,1,.165.61l-.407,7.3,6.5,3.279a1,1,0,0,1,.445.445l3.279,6.5,7.3-.407h.051a1.067,1.067,0,0,1,.559.165l6.088,4.017,6.088-4.017a1.029,1.029,0,0,1,.61-.165l7.3.407,3.279-6.5a1,1,0,0,1,.445-.445L87.9,77.7,87.5,70.4A1.276,1.276,0,0,1,87.686,69.789ZM63.7,82.436A18.735,18.735,0,1,1,82.436,63.7,18.753,18.753,0,0,1,63.7,82.436Z" transform="translate(-35.7 -35.7)" fill="#fe0000"/></g></g></g></g></svg>