<svg xmlns="http://www.w3.org/2000/svg" width="11.352" height="14.592" viewBox="0 0 11.352 14.592"><defs><style>.a{fill:#707070;}</style></defs><path class="a" d="M1495.067,82.925a3.973,3.973,0,0,1-1.958-.932c-.383,2.009-.851,3.935-2.237,4.941-.428-3.037.628-5.317,1.118-7.737-.837-1.408.1-4.241,1.864-3.543,2.17.858-1.88,5.234.839,5.78,2.839.57,4-4.925,2.237-6.712-2.543-2.581-7.4-.059-6.8,3.635.145.9,1.079,1.177.373,2.424-1.628-.361-2.113-1.644-2.051-3.356a5.477,5.477,0,0,1,4.941-5.035c3.066-.343,5.942,1.126,6.34,4.009.447,3.254-1.384,6.779-4.661,6.526Zm0,0" transform="translate(-1488.442 -72.341)"/></svg>